<svg width="89" height="201" viewBox="0 0 89 201" fill="none" xmlns="http://www.w3.org/2000/svg">
<path d="M0 30C0 13.4315 13.4315 0 30 0H89V156.5C89 181.077 69.0767 201 44.5 201V201C19.9233 201 0 181.077 0 156.5V30Z" fill="black"/>
<path fill-rule="evenodd" clip-rule="evenodd" d="M54.8499 61C62.4458 61 68.6034 67.1577 68.6034 74.7535V90.2703C68.6034 97.8662 62.4458 104.024 54.8499 104.024H34.396C26.8001 104.024 20.6425 97.8662 20.6425 90.2703V74.7535C20.6425 67.1577 26.8001 61 34.396 61H54.8499ZM34.2197 66.9951C30.4217 66.9951 27.3429 70.074 27.3429 73.8719V91.1519C27.3429 94.9499 30.4217 98.0287 34.2197 98.0287H55.0263C58.8242 98.0287 61.903 94.9499 61.903 91.1519V73.8719C61.903 70.074 58.8242 66.9951 55.0263 66.9951H34.2197Z" fill="white"/>
<path d="M15 77.3396C15 75.9114 16.1579 74.7535 17.5861 74.7535L20.6425 74.7535V87.4491C20.6425 89.0072 19.3794 90.2703 17.8212 90.2703C16.2631 90.2703 15 89.0072 15 87.4491V77.3396Z" fill="white"/>
<path d="M74.2459 77.3396C74.2459 75.9114 73.0881 74.7535 71.6598 74.7535L68.6034 74.7535V87.4491C68.6034 89.0072 69.8666 90.2703 71.4247 90.2703C72.9828 90.2703 74.2459 89.0072 74.2459 87.4491V77.3396Z" fill="white"/>
<path d="M40.3871 77.6045C42.505 80.0375 43.0716 83.4356 41.3352 86.5423C40.4464 88.1326 39.1381 89.0226 37.4981 89.1761C35.5627 89.3573 33.9968 88.6405 32.6841 86.8619C31.1795 84.8233 31.2318 80.6389 32.6805 78.5413C34.4263 76.0135 37.7957 75.3368 40.3871 77.6045Z" fill="white"/>
<path d="M52.8695 89.1632C51.0613 89.3836 49.5046 88.8796 48.3171 87.3017C46.9591 85.4974 46.3797 83.3804 46.9762 80.9447C47.5921 78.4296 48.9707 76.7761 51.0811 76.3072C53.3175 75.8103 55.3465 76.5896 56.6587 78.9286C57.9766 81.2777 58.0367 83.9893 56.6693 86.4479C55.8215 87.9723 54.5857 89.059 52.8695 89.1632Z" fill="white"/>
</svg>
