<svg width="168" height="122" viewBox="0 0 168 122" fill="none" xmlns="http://www.w3.org/2000/svg">
<path fill-rule="evenodd" clip-rule="evenodd" d="M113 0C134.539 0 152 17.4609 152 39V83C152 104.539 134.539 122 113 122H55C33.4609 122 16 104.539 16 83V39C16 17.4609 33.4609 3.86556e-07 55 0H113ZM54.5 17C43.7304 17 35 25.7304 35 36.5V85.5C35 96.2696 43.7304 105 54.5 105H113.5C124.27 105 133 96.2696 133 85.5V36.5C133 25.7304 124.27 17 113.5 17H54.5Z" fill="url(#paint0_linear_581_23)"/>
<path d="M0 46.3333C0 42.2832 3.28325 39 7.33333 39L16 39V75C16 79.4182 12.4183 83 8 83C3.58172 83 0 79.4182 0 75V46.3333Z" fill="url(#paint1_linear_581_23)"/>
<path d="M168 46.3333C168 42.2832 164.717 39 160.667 39L152 39V75C152 79.4182 155.582 83 160 83C164.418 83 168 79.4182 168 75V46.3333Z" fill="url(#paint2_linear_581_23)"/>
<path d="M71.9887 47.0844C77.9943 53.9836 79.601 63.6194 74.6772 72.4287C72.1567 76.9383 68.447 79.4618 63.7964 79.8972C58.3084 80.4111 53.8681 78.3785 50.1458 73.335C45.8793 67.5541 46.0276 55.6888 50.1354 49.7408C55.0859 42.5728 64.6404 40.654 71.9887 47.0844Z" fill="url(#paint3_linear_581_23)"/>
<path d="M107.384 79.8607C102.257 80.4858 97.8427 79.0565 94.4753 74.5822C90.6246 69.4656 88.9814 63.4627 90.6728 56.556C92.4194 49.424 96.3288 44.7353 102.313 43.4057C108.655 41.9967 114.408 44.2064 118.129 50.8391C121.866 57.5002 122.037 65.1893 118.159 72.161C115.755 76.4837 112.251 79.5653 107.384 79.8607Z" fill="url(#paint4_linear_581_23)"/>
<defs>
<linearGradient id="paint0_linear_581_23" x1="109.988" y1="74.2377" x2="75.3367" y2="33.2223" gradientUnits="userSpaceOnUse">
<stop stop-color="#070707"/>
<stop offset="1" stop-color="#6D6D6D"/>
</linearGradient>
<linearGradient id="paint1_linear_581_23" x1="109.988" y1="74.2377" x2="75.3367" y2="33.2223" gradientUnits="userSpaceOnUse">
<stop stop-color="#070707"/>
<stop offset="1" stop-color="#6D6D6D"/>
</linearGradient>
<linearGradient id="paint2_linear_581_23" x1="109.988" y1="74.2377" x2="75.3367" y2="33.2223" gradientUnits="userSpaceOnUse">
<stop stop-color="#070707"/>
<stop offset="1" stop-color="#6D6D6D"/>
</linearGradient>
<linearGradient id="paint3_linear_581_23" x1="109.988" y1="74.2377" x2="75.3367" y2="33.2223" gradientUnits="userSpaceOnUse">
<stop stop-color="#070707"/>
<stop offset="1" stop-color="#6D6D6D"/>
</linearGradient>
<linearGradient id="paint4_linear_581_23" x1="109.988" y1="74.2377" x2="75.3367" y2="33.2223" gradientUnits="userSpaceOnUse">
<stop stop-color="#070707"/>
<stop offset="1" stop-color="#6D6D6D"/>
</linearGradient>
</defs>
</svg>
