<svg width="162" height="142" viewBox="0 0 162 142" fill="none" xmlns="http://www.w3.org/2000/svg">
<path d="M161.284 66.8235C161.535 67.3454 162 67.7244 162 68.3037C162 76.7842 161.997 85.2661 161.926 93.7849C161.921 94.3245 161.587 94.7641 161.364 95.2557V95.2557C159.824 98.6565 157.207 100.696 153.534 101.282V101.282C150.841 101.712 148.73 103.765 148.724 106.492C148.722 107.33 148.715 108.165 148.696 109C148.666 110.401 148.606 111.82 148.358 113.194C146.734 122.166 142.445 129.563 135.148 135.131C129.399 139.518 122.829 141.878 115.66 141.921C92.5724 142.059 69.4832 141.978 46.3945 141.958C44.9414 141.956 43.4661 141.866 42.0392 141.608C33.0565 139.981 25.6604 135.673 20.103 128.38C17.2034 124.575 15.311 120.307 14.204 115.637C13.2288 111.522 13.289 107.372 13.2891 103.207V103.207C13.2891 102.274 12.5325 101.523 11.5992 101.524C11.2809 101.524 10.9768 101.522 10.6727 101.515C6.25338 101.415 2.81107 99.7064 0.815102 95.574V95.574C0.517479 94.9578 -4.78119e-06 94.4838 5.21914e-06 93.7995C0.000129038 85.3266 0.00317813 76.8523 0.0779347 68.3431C0.0818541 67.897 0.427529 67.5747 0.588923 67.1588V67.1588C1.83847 63.9387 4.15314 61.8441 7.49178 61.1027V61.1027C10.7081 60.3886 13.2457 58.037 13.2904 54.7426C13.2918 54.6382 13.2933 54.5338 13.2951 54.4294C13.3585 50.5921 13.8614 46.8268 15.1486 43.1833C17.256 37.2183 20.5766 32.1239 25.5379 28.0997C31.6704 23.1255 38.5916 20.344 46.5243 20.3021C55.119 20.2567 63.714 20.2917 72.3089 20.2917V20.2917C73.2644 20.2917 74.0391 19.5169 74.0379 18.5614C74.0337 15.0789 74.0209 11.7355 74.0538 8.39253C74.0649 7.26034 74.1194 6.0975 74.3854 5.00495C75.0818 2.14521 77.8647 -0.0713178 81.1844 0.00175589C83.9277 0.0621432 86.9309 1.99433 87.6175 5.04388C87.8763 6.19352 87.9344 7.40535 87.9463 8.59022C87.979 11.8327 87.9672 15.0757 87.9625 18.3636C87.961 19.4284 88.8242 20.2917 89.889 20.2917V20.2917C98.4839 20.2917 107.079 20.2564 115.673 20.3198C117.525 20.3334 119.396 20.586 121.22 20.928C130.646 22.6953 137.979 27.7332 143.243 35.638C146.984 41.2535 148.649 47.5988 148.708 54.348C148.72 55.7432 148.717 57.1386 148.714 58.5714C148.712 59.7726 149.686 60.8008 150.886 60.7419V60.7419C155.681 60.5068 159.181 62.457 161.284 66.8235V66.8235ZM134.789 59.9565C134.789 57.7973 134.807 55.638 134.786 53.479C134.732 48.0167 132.478 43.4256 128.678 39.7126C124.563 35.6907 119.374 33.8996 113.633 33.8927C91.86 33.8664 70.0868 33.8727 48.3137 33.9021C46.7642 33.9041 45.1887 34.0615 43.6705 34.3693C38.7639 35.3642 34.692 37.7996 31.5457 41.7207C28.923 44.9893 27.2652 48.7146 27.2469 52.8986C27.1643 71.6981 27.2107 90.4982 27.2119 109.298C27.212 109.771 27.1663 110.255 27.2465 110.716C28.1293 115.784 30.4643 120.055 34.4068 123.386C37.8122 126.263 41.7404 128.033 46.2354 128.043C68.6938 128.093 91.1526 128.015 113.611 128.105C118.561 128.125 123.036 127.005 126.9 123.934C131.708 120.114 134.713 115.178 134.754 108.931C134.859 92.712 134.789 76.492 134.789 59.9565Z" fill="url(#paint0_linear_551_100)"/>
<path d="M68.6524 97.2598C69.0301 96.6812 69.4466 96.1193 70.0189 95.7322C71.8391 94.5012 73.8993 94.5062 76.0099 94.5441C80.1216 94.6178 84.2357 94.5723 88.3487 94.5616C91.184 94.5542 92.9052 96.133 94.005 98.5428C95.1295 101.007 94.8792 103.405 93.2392 105.534C91.8327 107.361 89.9259 108.227 87.534 108.179C83.159 108.092 78.7804 108.109 74.4045 108.171C71.6343 108.211 69.571 107.063 68.2413 104.712C66.8118 102.185 67.0818 99.6664 68.6524 97.2598V97.2598Z" fill="url(#paint1_linear_551_100)"/>
<path d="M98.0277 72.2267C94.0044 68.4131 92.9281 63.0869 96.2266 58.2176C97.9151 55.7249 100.4 54.33 103.516 54.0893C107.192 53.8053 110.167 54.9288 112.661 57.7166C115.519 60.912 115.419 67.4706 112.668 70.7583C109.351 74.7205 102.95 75.7811 98.0277 72.2267Z" fill="url(#paint2_linear_551_100)"/>
<path d="M56.089 54.1095C59.524 53.764 62.4811 54.5541 64.7369 57.0272C67.3166 59.8554 68.4174 63.1736 67.2843 66.9912C66.1142 70.9335 63.4953 73.5251 59.4864 74.2601C55.238 75.0389 51.3837 73.8175 48.8909 70.1513C46.3874 66.4694 46.2732 62.2192 48.8707 58.3655C50.4813 55.9761 52.8289 54.2728 56.089 54.1095Z" fill="url(#paint3_linear_551_100)"/>
<path d="M40.4911 100.981C40.6725 99.6713 40.8423 98.3338 41.594 97.2458C42.9315 95.3102 44.8561 94.418 47.4997 94.5427C49.8633 94.6543 52.2365 94.5576 54.6054 94.566C57.9445 94.5778 60.7258 97.3353 60.7499 100.646C60.7867 105.685 58.3432 108.154 53.3207 108.155C51.4256 108.155 49.5199 108.027 47.6376 108.182C44.1306 108.472 39.8729 105.444 40.4911 100.981V100.981Z" fill="url(#paint4_linear_551_100)"/>
<path d="M106.304 107.938C100.148 106.485 100.722 94.6012 107.046 94.5058C107.166 94.504 107.286 94.5082 107.403 94.5188C109.857 94.7393 112.358 94.7226 114.816 94.5268C118.397 94.2414 121.609 97.6924 121.585 101.21C121.56 104.983 119.313 107.366 116.176 108.046C114.366 108.439 112.405 108.167 110.512 108.146C109.106 108.131 107.649 108.255 106.304 107.938V107.938Z" fill="url(#paint5_linear_551_100)"/>
<defs>
<linearGradient id="paint0_linear_551_100" x1="46.1953" y1="29.6154" x2="124.493" y2="130.95" gradientUnits="userSpaceOnUse">
<stop stop-color="#457DFF"/>
<stop offset="0.509615" stop-color="#FF4FDC"/>
<stop offset="1" stop-color="#BB00FF"/>
</linearGradient>
<linearGradient id="paint1_linear_551_100" x1="46.1953" y1="29.6154" x2="124.493" y2="130.95" gradientUnits="userSpaceOnUse">
<stop stop-color="#457DFF"/>
<stop offset="0.509615" stop-color="#FF4FDC"/>
<stop offset="1" stop-color="#BB00FF"/>
</linearGradient>
<linearGradient id="paint2_linear_551_100" x1="46.1953" y1="29.6154" x2="124.493" y2="130.95" gradientUnits="userSpaceOnUse">
<stop stop-color="#457DFF"/>
<stop offset="0.509615" stop-color="#FF4FDC"/>
<stop offset="1" stop-color="#BB00FF"/>
</linearGradient>
<linearGradient id="paint3_linear_551_100" x1="46.1953" y1="29.6154" x2="124.493" y2="130.95" gradientUnits="userSpaceOnUse">
<stop stop-color="#457DFF"/>
<stop offset="0.509615" stop-color="#FF4FDC"/>
<stop offset="1" stop-color="#BB00FF"/>
</linearGradient>
<linearGradient id="paint4_linear_551_100" x1="46.1953" y1="29.6154" x2="124.493" y2="130.95" gradientUnits="userSpaceOnUse">
<stop stop-color="#457DFF"/>
<stop offset="0.509615" stop-color="#FF4FDC"/>
<stop offset="1" stop-color="#BB00FF"/>
</linearGradient>
<linearGradient id="paint5_linear_551_100" x1="46.1953" y1="29.6154" x2="124.493" y2="130.95" gradientUnits="userSpaceOnUse">
<stop stop-color="#457DFF"/>
<stop offset="0.509615" stop-color="#FF4FDC"/>
<stop offset="1" stop-color="#BB00FF"/>
</linearGradient>
</defs>
</svg>
