<svg width="512" height="512" viewBox="0 0 512 512" fill="none" xmlns="http://www.w3.org/2000/svg">
<g clip-path="url(#clip0_538_61)">
<path d="M513 235C513 263.688 513 292.375 512.743 321.2C511.979 321.951 511.306 322.488 510.99 323.187C506.122 333.948 497.853 340.402 486.243 342.255C481.282 343.047 476.195 343.053 471 343.427C471 351.37 471.121 359.025 470.954 366.674C470.857 371.107 470.669 375.597 469.883 379.946C464.753 408.334 451.196 431.737 428.136 449.354C409.965 463.236 389.199 470.7 366.544 470.836C293.575 471.275 220.601 471.02 147.63 470.953C143.037 470.949 138.374 470.664 133.865 469.847C105.475 464.701 82.0995 451.07 64.5354 427.995C55.3711 415.955 49.3903 402.45 45.8917 387.673C42.8094 374.655 42.9998 361.523 43 348.347C43 346.603 43 344.859 43 343C39.7246 343 37.2266 343.048 34.731 342.992C20.7638 342.677 9.88436 337.27 3.57613 324.195C3.1277 323.265 1.87743 322.722 1 322C0.999998 293.312 0.999998 264.625 1.26638 235.808C1.9859 235.219 2.64733 234.84 2.86129 234.288C6.81047 224.1 14.126 217.472 24.6777 215.127C30.5118 213.83 36.6664 213.975 43 213.443C43 206.953 42.9122 200.481 43.019 194.012C43.2195 181.871 44.8088 169.957 48.877 158.429C55.5373 139.556 66.0323 123.437 81.7125 110.704C101.094 94.9658 122.969 86.1649 148.04 86.0324C175.203 85.8888 202.368 85.9996 229.532 85.9995C231.287 85.9995 233.042 85.9995 235 85.9995C235 72.986 234.926 60.6672 235.046 48.3503C235.082 44.768 235.254 41.0888 236.095 37.6319C238.296 28.5836 247.091 21.5705 257.583 21.8017C266.253 21.9928 275.745 28.1062 277.915 37.7551C278.733 41.3926 278.916 45.2269 278.954 48.9758C279.077 61.235 279 73.4962 279 85.9995C281.467 85.9995 283.28 85.9995 285.094 85.9995C312.258 85.9996 339.423 85.888 366.585 86.0885C372.436 86.1316 378.349 86.9308 384.115 88.013C413.907 93.6045 437.08 109.545 453.72 134.556C465.541 152.323 470.805 172.4 470.991 193.755C471.048 200.37 471 206.986 471 214C473.62 214 475.752 214.089 477.873 213.985C493.029 213.241 504.089 219.411 510.736 233.227C511.109 234.002 512.228 234.417 513 235ZM427 211.5C427 204.668 427.056 197.836 426.989 191.005C426.821 173.722 419.695 159.196 407.687 147.448C394.679 134.722 378.282 129.055 360.137 129.033C291.323 128.95 222.509 128.97 153.695 129.063C148.798 129.07 143.818 129.568 139.02 130.542C123.513 133.689 110.644 141.395 100.7 153.802C92.4109 164.144 87.1716 175.93 87.1135 189.169C86.8525 248.651 86.9991 308.135 87.0032 367.618C87.0033 369.115 86.8588 370.647 87.1125 372.105C89.9023 388.14 97.2823 401.655 109.742 412.193C120.505 421.295 132.92 426.896 147.127 426.928C218.106 427.086 289.087 426.839 360.066 427.125C375.711 427.188 389.855 423.642 402.067 413.928C417.264 401.839 426.761 386.222 426.889 366.456C427.22 315.139 427 263.819 427 211.5Z" fill="#5B9AEC"/>
<path d="M219.732 326.75C226.076 320.798 233.547 320.798 241.229 320.936C254.224 321.169 267.226 321.025 280.226 320.991C289.186 320.968 294.626 325.963 298.102 333.588C301.656 341.384 300.865 348.973 295.682 355.71C291.237 361.488 285.21 364.229 277.651 364.079C263.824 363.803 249.985 363.854 236.155 364.053C227.4 364.179 220.879 360.546 216.676 353.109C212.158 345.113 213.012 337.143 217.976 329.529C218.507 328.713 218.973 327.856 219.732 326.75Z" fill="#5B9AEC"/>
<path d="M310.816 250.323C298.1 238.257 294.699 221.405 305.124 205.998C310.46 198.111 318.315 193.698 328.161 192.936C339.781 192.037 349.182 195.592 357.063 204.413C366.097 214.523 365.783 235.275 357.085 245.677C346.604 258.214 326.374 261.569 310.816 250.323Z" fill="#5B9AEC"/>
<path d="M178.269 193C189.125 191.907 198.471 194.407 205.601 202.232C213.754 211.18 217.233 221.679 213.652 233.758C209.954 246.231 201.676 254.432 189.006 256.757C175.579 259.221 163.398 255.356 155.519 243.756C147.607 232.107 147.246 218.659 155.456 206.466C160.546 198.906 167.965 193.517 178.269 193Z" fill="#5B9AEC"/>
<path d="M129.49 335.028C133.63 325.075 140.561 320.433 151.122 320.932C158.593 321.285 166.093 320.979 173.58 321.005C184.133 321.043 192.924 329.767 193 340.242C193.116 356.185 185.393 363.999 169.52 364C163.53 364.001 157.507 363.596 151.558 364.088C140.475 365.003 127.018 355.425 128.972 341.303C129.243 339.341 129.136 337.327 129.49 335.028Z" fill="#5B9AEC"/>
<path d="M321 341.1C319.463 331.278 331.323 320.035 340.448 320.856C348.202 321.553 356.108 321.501 363.875 320.881C375.192 319.978 385.344 330.897 385.269 342.028C385.189 353.966 378.087 361.506 368.175 363.657C362.452 364.899 356.255 364.039 350.273 363.974C345.828 363.925 341.224 364.318 336.974 363.314C326.923 360.939 319.761 352.786 321 341.1Z" fill="#5B9AEC"/>
</g>
<defs>
<clipPath id="clip0_538_61">
<rect width="512" height="512" fill="white"/>
</clipPath>
</defs>
</svg>
