<svg width="512" height="512" viewBox="0 0 512 512" fill="none" xmlns="http://www.w3.org/2000/svg">
<path d="M171 465C150.836 465 131.173 465.011 111.509 464.995C102.839 464.988 97.0027 458.664 97.0003 449.343C96.9977 439.424 102.578 433.04 111.316 433.004C116.971 432.981 122.626 433 129 433C129 431.069 129 429.317 129 427.565C129 406.568 129.026 385.571 128.993 364.574C128.961 344.004 136.485 326.182 148.546 309.924C162.601 290.977 181.467 277.891 201.474 266.181C206.609 263.175 211.871 260.384 217.758 257.115C208.605 251.8 199.975 247.094 191.65 241.898C168.258 227.296 148.011 209.55 136.437 183.776C131.955 173.794 129.072 163.229 129.028 152.155C128.936 128.672 129 105.189 129 81C123.231 81 117.639 81.0046 112.046 80.999C102.643 80.9896 96.9994 74.9407 97.0002 64.8806C97.0011 55.1869 102.738 49.0034 111.779 49.003C208.598 48.9982 305.417 48.9982 402.235 49.0029C411.268 49.0034 417 55.1925 417 64.894C417 74.6406 411.277 80.974 402.428 80.9972C396.796 81.012 391.164 81 385 81C385 82.9715 385 84.5812 385 86.1908C385 105.355 384.501 124.535 385.133 143.678C385.842 165.18 379.2 184.108 367.066 201.36C355.449 217.877 339.932 230.235 323.059 240.932C314.296 246.488 305.186 251.495 295.594 257.125C301.575 260.489 307.439 263.685 313.205 267.048C329.991 276.836 345.894 287.845 358.877 302.47C371.962 317.212 381.415 333.878 384.035 353.812C384.418 356.73 384.947 359.662 384.958 362.589C385.036 384.085 385 405.582 385 427.079C385 428.876 385 430.674 385 433C390.974 433 396.586 432.992 402.198 433.002C411.582 433.017 417.012 439.205 417 449.856C416.99 458.976 411.023 464.998 401.966 464.998C325.144 465.001 248.322 465 171 465ZM182.5 81C175.408 81 168.316 81 161 81C161 83.4796 160.975 85.296 161.004 87.1117C161.331 108.034 161.752 128.956 161.961 149.88C162.056 159.296 164.991 167.956 169.549 175.833C177.54 189.641 188.608 200.818 202.36 208.96C220.077 219.449 238.065 229.483 256.702 240.152C276.43 228.599 296.071 217.79 314.962 205.8C328.344 197.306 339.153 185.886 346.338 171.335C351.246 161.394 352.65 150.772 352.89 140.035C353.293 122.051 353.006 104.051 352.991 86.0578C352.989 84.4561 352.856 82.8544 352.773 81C296.079 81 239.789 81 182.5 81ZM213.367 297.969C212.467 298.333 211.441 298.529 210.685 299.088C202.427 305.195 193.814 310.902 186.091 317.629C177.547 325.072 171.234 334.367 166.509 344.834C162.282 354.199 161.434 364.097 161.148 373.959C160.627 391.929 160.995 409.925 161.01 427.91C161.011 429.514 161.146 431.118 161.218 432.708C225.298 432.708 288.987 432.708 352.804 432.708C352.884 431.789 352.996 431.147 352.987 430.508C352.666 409.098 352.165 387.689 352.085 366.279C352.054 357.881 349.861 350.217 346.34 342.79C338.561 326.379 325.696 314.463 310.717 305.136C293.236 294.25 274.975 284.614 257.54 274.713C255.439 275.796 254.294 276.378 253.157 276.974C240.099 283.83 227.042 290.688 213.367 297.969Z" fill="#5B9AEC"/>
</svg>
